<?xml version="1.0" encoding="UTF-8" standalone="no"?>
<!DOCTYPE svg PUBLIC "-//W3C//DTD SVG 1.1//EN" "http://www.w3.org/Graphics/SVG/1.1/DTD/svg11.dtd">
<svg width="100%" height="100%" viewBox="0 0 512 512" version="1.1" xmlns="http://www.w3.org/2000/svg" xmlns:xlink="http://www.w3.org/1999/xlink" xml:space="preserve" xmlns:serif="http://www.serif.com/" style="fill-rule:evenodd;clip-rule:evenodd;stroke-linejoin:round;stroke-miterlimit:1.41421;">
    <path d="M437,0L75,0C33.645,0 0,33.645 0,75L0,437C0,478.355 33.645,512 75,512L437,512C478.355,512 512,478.355 512,437L512,75C512,33.645 478.355,0 437,0ZM482,437C482,461.813 461.813,482 437,482L75,482C50.188,482 30,461.813 30,437L30,75C30,50.188 50.188,30 75,30L437,30C461.813,30 482,50.188 482,75L482,437Z" style="fill:white;fill-rule:nonzero;"/>
    <path d="M91,422L181,422L181,210L91,210L91,422ZM121,240L151,240L151,392L121,392L121,240Z" style="fill:white;fill-rule:nonzero;"/>
    <path d="M331.086,210L331,210C320.629,210 310.527,211.734 301,215.102L301,210L211,210L211,422L301,422L301,315C301,306.73 307.73,300 316,300C324.27,300 331,306.73 331,315L331,422L421,422L421,304.688C421,256.141 381.617,210.047 331.086,210ZM391,392L361,392L361,315C361,290.188 340.813,270 316,270C291.188,270 271.004,290.188 271,314.996L271,392L241,392L241,240L271,240L271,270.02L295.008,251.988C305.449,244.145 317.895,240 331,240L331.059,240C362.988,240.031 391,270.258 391,304.688L391,392Z" style="fill:white;fill-rule:nonzero;"/>
    <path d="M91,180L181,180L181,90L91,90L91,180ZM121,120L151,120L151,150L121,150L121,120Z" style="fill:white;fill-rule:nonzero;"/>
</svg>
