<?xml version="1.0" encoding="UTF-8" standalone="no"?>
<!DOCTYPE svg PUBLIC "-//W3C//DTD SVG 1.1//EN" "http://www.w3.org/Graphics/SVG/1.1/DTD/svg11.dtd">
<svg width="100%" height="100%" viewBox="0 0 512 512" version="1.1" xmlns="http://www.w3.org/2000/svg" xmlns:xlink="http://www.w3.org/1999/xlink" xml:space="preserve" xmlns:serif="http://www.serif.com/" style="fill-rule:evenodd;clip-rule:evenodd;stroke-linejoin:round;stroke-miterlimit:1.41421;">
    <g>
        <path d="M448,0L416,0L416,32L448,32C465.673,32 480,46.327 480,64L480,448C480,465.673 465.673,480 448,480L64,480C46.327,480 32,465.673 32,448L32,64C32,46.327 46.327,32 64,32L256,32L256,0L64,0C28.654,0 0,28.654 0,64L0,448C0,483.346 28.654,512 64,512L448,512C483.346,512 512,483.346 512,448L512,64C512,28.654 483.346,0 448,0Z" style="fill:white;fill-rule:nonzero;"/>
        <rect x="352" y="0" width="32" height="32" style="fill:white;"/>
        <rect x="288" y="0" width="32" height="32" style="fill:white;"/>
        <path d="M186.304,128L112,128L112,160L144,160L144,352L112,352L112,384L176,384L176,182.656L256,358.672L336,182.656L336,384L400,384L400,352L368,352L368,160L400,160L400,128L325.696,128L256,281.328L186.304,128Z" style="fill:white;fill-rule:nonzero;"/>
    </g>
</svg>
